<svg width="35" height="35" viewBox="0 0 35 35" fill="none" xmlns="http://www.w3.org/2000/svg">
<path d="M14.5832 24.0623V10.9373L23.3332 17.4998M17.4998 2.9165C15.5847 2.9165 13.6884 3.29371 11.919 4.02659C10.1497 4.75948 8.54205 5.83368 7.18786 7.18786C4.45296 9.92277 2.9165 13.6321 2.9165 17.4998C2.9165 21.3676 4.45296 25.0769 7.18786 27.8118C8.54205 29.166 10.1497 30.2402 11.919 30.9731C13.6884 31.706 15.5847 32.0832 17.4998 32.0832C21.3676 32.0832 25.0769 30.5467 27.8118 27.8118C30.5467 25.0769 32.0832 21.3676 32.0832 17.4998C32.0832 15.5847 31.706 13.6884 30.9731 11.919C30.2402 10.1497 29.166 8.54205 27.8118 7.18786C26.4576 5.83368 24.85 4.75948 23.0806 4.02659C21.3113 3.29371 19.4149 2.9165 17.4998 2.9165Z" fill="#F8F8F8"/>
</svg>
