<svg width="40" height="34" viewBox="0 0 40 34" fill="none" xmlns="http://www.w3.org/2000/svg">
<path d="M3.56875 0C1.59722 0 0 1.58664 0 3.5416V30.4436C0 32.3985 1.60008 33.9852 3.56875 33.9852H4.9974C6.96892 33.9852 8.56615 32.3985 8.56615 30.4436V3.53876C8.56615 1.5838 6.96607 0 4.99454 0H3.56875ZM14.9893 0C13.0178 0 11.4177 1.58664 11.4177 3.5416V30.4436C11.4177 32.3985 13.0178 33.9852 14.9893 33.9852H16.418C17.3642 33.9837 18.2712 33.6099 18.9398 32.9459C19.6084 32.2818 19.9839 31.3819 19.9839 30.4436V3.53876C19.9831 2.60046 19.6069 1.70079 18.9378 1.03731C18.2687 0.373824 17.3614 0.000750347 16.4151 0H14.9893ZM31.3502 7.86801C31.007 7.02386 30.3494 6.3431 29.5136 5.96696C28.6778 5.59082 27.728 5.54818 26.8614 5.84789L25.1984 6.42587C24.7434 6.58428 24.3254 6.83243 23.9697 7.15535C23.614 7.47828 23.3279 7.86929 23.1288 8.30481C22.9296 8.74033 22.8214 9.21134 22.8108 9.68944C22.8001 10.1675 22.8873 10.6428 23.0669 11.0866L31.4587 31.7809C32.1702 33.5375 34.1446 34.4243 35.9475 33.801L37.6105 33.223C38.0659 33.0646 38.4842 32.8164 38.8401 32.4933C39.1961 32.1702 39.4823 31.7788 39.6815 31.343C39.8807 30.9071 39.9888 30.4358 39.9992 29.9574C40.0096 29.4789 39.9221 29.0034 39.742 28.5594L31.3502 7.86801Z" fill="#F8F8F8"/>
</svg>
