<svg width="81" height="81" viewBox="0 0 81 81" fill="none" xmlns="http://www.w3.org/2000/svg">
<path d="M25.3125 20.25C23.9698 20.25 22.6822 20.7834 21.7328 21.7328C20.7834 22.6822 20.25 23.9698 20.25 25.3125V32.9062C20.25 34.2489 20.7834 35.5366 21.7328 36.486C22.6822 37.4354 23.9698 37.9688 25.3125 37.9688H32.9062C34.2489 37.9688 35.5366 37.4354 36.486 36.486C37.4354 35.5366 37.9688 34.2489 37.9688 32.9062V25.3125C37.9688 23.9698 37.4354 22.6822 36.486 21.7328C35.5366 20.7834 34.2489 20.25 32.9062 20.25H25.3125ZM25.3125 43.0312C23.9698 43.0312 22.6822 43.5646 21.7328 44.514C20.7834 45.4634 20.25 46.7511 20.25 48.0938V55.6875C20.25 57.0302 20.7834 58.3178 21.7328 59.2672C22.6822 60.2166 23.9698 60.75 25.3125 60.75H32.9062C34.2489 60.75 35.5366 60.2166 36.486 59.2672C37.4354 58.3178 37.9688 57.0302 37.9688 55.6875V48.0938C37.9688 46.7511 37.4354 45.4634 36.486 44.514C35.5366 43.5646 34.2489 43.0312 32.9062 43.0312H25.3125ZM48.0938 20.25C46.7511 20.25 45.4634 20.7834 44.514 21.7328C43.5646 22.6822 43.0312 23.9698 43.0312 25.3125V32.9062C43.0312 34.2489 43.5646 35.5366 44.514 36.486C45.4634 37.4354 46.7511 37.9688 48.0938 37.9688H55.6875C57.0302 37.9688 58.3178 37.4354 59.2672 36.486C60.2166 35.5366 60.75 34.2489 60.75 32.9062V25.3125C60.75 23.9698 60.2166 22.6822 59.2672 21.7328C58.3178 20.7834 57.0302 20.25 55.6875 20.25H48.0938ZM48.0938 43.0312C46.7511 43.0312 45.4634 43.5646 44.514 44.514C43.5646 45.4634 43.0312 46.7511 43.0312 48.0938V55.6875C43.0312 57.0302 43.5646 58.3178 44.514 59.2672C45.4634 60.2166 46.7511 60.75 48.0938 60.75H55.6875C57.0302 60.75 58.3178 60.2166 59.2672 59.2672C60.2166 58.3178 60.75 57.0302 60.75 55.6875V48.0938C60.75 46.7511 60.2166 45.4634 59.2672 44.514C58.3178 43.5646 57.0302 43.0312 55.6875 43.0312H48.0938ZM10.125 22.7812C10.125 19.4246 11.4584 16.2054 13.8319 13.8319C16.2054 11.4584 19.4246 10.125 22.7812 10.125H58.2188C61.5754 10.125 64.7946 11.4584 67.1681 13.8319C69.5416 16.2054 70.875 19.4246 70.875 22.7812V58.2188C70.875 61.5754 69.5416 64.7946 67.1681 67.1681C64.7946 69.5416 61.5754 70.875 58.2188 70.875H22.7812C19.4246 70.875 16.2054 69.5416 13.8319 67.1681C11.4584 64.7946 10.125 61.5754 10.125 58.2188V22.7812ZM22.7812 15.1875C20.7673 15.1875 18.8358 15.9876 17.4117 17.4117C15.9876 18.8358 15.1875 20.7673 15.1875 22.7812V58.2188C15.1875 60.2327 15.9876 62.1642 17.4117 63.5883C18.8358 65.0124 20.7673 65.8125 22.7812 65.8125H58.2188C60.2327 65.8125 62.1642 65.0124 63.5883 63.5883C65.0124 62.1642 65.8125 60.2327 65.8125 58.2188V22.7812C65.8125 20.7673 65.0124 18.8358 63.5883 17.4117C62.1642 15.9876 60.2327 15.1875 58.2188 15.1875H22.7812Z" fill="url(#paint0_linear_106_256)"/>
<defs>
<linearGradient id="paint0_linear_106_256" x1="40.5" y1="10.125" x2="40.5" y2="70.875" gradientUnits="userSpaceOnUse">
<stop stop-color="#F8F8F8"/>
<stop offset="1" stop-color="#D4D4D4"/>
</linearGradient>
</defs>
</svg>
