<svg width="36" height="33" viewBox="0 0 36 33" fill="none" xmlns="http://www.w3.org/2000/svg">
<path d="M3.27271 27H5.45408V31.9995H3.27271V27Z" fill="#F8F8F8"/>
<path d="M5.45411 17.1394V0H3.27386V17.1394C2.24549 17.3828 1.34928 17.9617 0.753221 18.7676C0.15716 19.5734 -0.0978349 20.5508 0.036031 21.5167C0.169897 22.4825 0.683434 23.3705 1.48039 24.0141C2.27734 24.6576 3.30299 25.0127 4.36511 25.0127C5.42722 25.0127 6.45288 24.6576 7.24983 24.0141C8.04678 23.3705 8.56032 22.4825 8.69418 21.5167C8.82805 20.5508 8.57305 19.5734 7.97699 18.7676C7.38093 17.9617 6.48473 17.3828 5.45636 17.1394M4.36511 23C4.0744 23.006 3.78531 22.9588 3.51481 22.861C3.2443 22.7632 2.99785 22.6168 2.78992 22.4305C2.58198 22.2442 2.41676 22.0216 2.30396 21.7759C2.19116 21.5303 2.13306 21.2664 2.13306 20.9999C2.13306 20.7333 2.19116 20.4694 2.30396 20.2238C2.41676 19.9781 2.58198 19.7556 2.78992 19.5692C2.99785 19.3829 3.2443 19.2365 3.51481 19.1388C3.78531 19.041 4.0744 18.9937 4.36511 18.9998C4.93521 19.0116 5.47761 19.2276 5.87624 19.6014C6.27487 19.9752 6.49806 20.4771 6.49806 20.9999C6.49806 21.5226 6.27487 22.0246 5.87624 22.3984C5.47761 22.7722 4.93521 22.9881 4.36511 23Z" fill="#F8F8F8"/>
<path d="M16.363 17.0002H18.5444V31.9998H16.363V17.0002Z" fill="#F8F8F8"/>
<path d="M18.5457 7.14037V0H16.3632V7.14037C15.3348 7.38384 14.4386 7.96274 13.8426 8.76857C13.2465 9.5744 12.9915 10.5518 13.1254 11.5177C13.2593 12.4835 13.7728 13.3715 14.5697 14.0151C15.3667 14.6586 16.3923 15.0137 17.4545 15.0137C18.5166 15.0137 19.5422 14.6586 20.3392 14.0151C21.1361 13.3715 21.6497 12.4835 21.7835 11.5177C21.9174 10.5518 21.6624 9.5744 21.0663 8.76857C20.4703 7.96274 19.5741 7.38384 18.5457 7.14037ZM17.4545 12.9999C17.1638 13.006 16.8747 12.9587 16.6042 12.8609C16.3337 12.7631 16.0872 12.6168 15.8793 12.4305C15.6713 12.2441 15.5061 12.0216 15.3933 11.7759C15.2805 11.5302 15.2224 11.2664 15.2224 10.9998C15.2224 10.7333 15.2805 10.4694 15.3933 10.2237C15.5061 9.97807 15.6713 9.75553 15.8793 9.56921C16.0872 9.38288 16.3337 9.23652 16.6042 9.13872C16.8747 9.04093 17.1638 8.99367 17.4545 8.99972C18.0333 8.99972 18.5884 9.2105 18.9977 9.58569C19.407 9.96088 19.637 10.4697 19.637 11.0003C19.637 11.5309 19.407 12.0398 18.9977 12.415C18.5884 12.7902 18.0333 13.001 17.4545 13.001" fill="#F8F8F8"/>
<path d="M29.4548 27H31.6362V31.9995H29.4548V27Z" fill="#F8F8F8"/>
<path d="M31.6363 17.1394V0H29.4538V17.1394C28.4254 17.3828 27.5292 17.9617 26.9332 18.7676C26.3371 19.5734 26.0821 20.5508 26.216 21.5167C26.3498 22.4825 26.8634 23.3705 27.6603 24.0141C28.4573 24.6576 29.4829 25.0127 30.545 25.0127C31.6072 25.0127 32.6328 24.6576 33.4298 24.0141C34.2267 23.3705 34.7402 22.4825 34.8741 21.5167C35.008 20.5508 34.753 19.5734 34.1569 18.7676C33.5609 17.9617 32.6647 17.3828 31.6363 17.1394ZM30.545 23C30.2543 23.006 29.9652 22.9588 29.6947 22.861C29.4242 22.7632 29.1778 22.6168 28.9698 22.4305C28.7619 22.2442 28.5967 22.0216 28.4839 21.7759C28.3711 21.5303 28.313 21.2664 28.313 20.9999C28.313 20.7333 28.3711 20.4694 28.4839 20.2238C28.5967 19.9781 28.7619 19.7556 28.9698 19.5692C29.1778 19.3829 29.4242 19.2365 29.6947 19.1388C29.9652 19.041 30.2543 18.9937 30.545 18.9998C31.1151 19.0116 31.6575 19.2276 32.0562 19.6014C32.4548 19.9752 32.678 20.4771 32.678 20.9999C32.678 21.5226 32.4548 22.0246 32.0562 22.3984C31.6575 22.7722 31.1151 22.9881 30.545 23Z" fill="#F8F8F8"/>
</svg>
