<svg width="43" height="44" viewBox="0 0 43 44" fill="none" xmlns="http://www.w3.org/2000/svg">
<g clip-path="url(#clip0_106_113)">
<g clip-path="url(#clip1_106_113)">
<path fill-rule="evenodd" clip-rule="evenodd" d="M37.4422 15.714C37.4422 21.7484 32.641 26.6406 26.72 26.6406C25.6409 26.6406 23.1809 26.3871 21.9849 25.3698L20.4885 26.894C19.608 27.7916 19.8455 28.0554 20.2374 28.4895C20.4003 28.6717 20.5903 28.8818 20.7379 29.1821C20.7379 29.1821 21.9849 30.9598 20.7379 32.7393C19.9897 33.7549 17.8945 35.1767 15.5023 32.7393L15.0035 33.2462C15.0035 33.2462 16.4982 35.0256 15.2529 36.8051C14.5047 37.8207 12.5096 38.8362 10.7638 37.0585L9.01974 38.8362C7.82197 40.0567 6.35953 39.3449 5.77931 38.8362L4.28125 37.312C2.88498 35.8885 3.69933 34.3468 4.28125 33.7531L17.2464 20.5419C17.2464 20.5419 15.9994 18.5107 15.9994 15.7157C15.9994 9.68122 20.8007 4.78906 26.7217 4.78906C32.6427 4.78906 37.4422 9.68122 37.4422 15.714ZM26.7217 19.5263C27.7113 19.5281 28.6611 19.1278 29.3623 18.4132C30.0635 17.6986 30.4586 16.7283 30.4609 15.7157C30.46 15.2141 30.3626 14.7177 30.1742 14.2546C29.9858 13.7916 29.7101 13.3711 29.3629 13.0171C29.0157 12.6631 28.6037 12.3825 28.1505 12.1914C27.6973 12.0003 27.2118 11.9024 26.7217 11.9033C26.2315 11.9024 25.746 12.0003 25.2928 12.1914C24.8396 12.3825 24.4277 12.6631 24.0804 13.0171C23.7332 13.3711 23.4575 13.7916 23.2691 14.2546C23.0808 14.7177 22.9833 15.2141 22.9824 15.7157C22.9847 16.7283 23.3798 17.6986 24.081 18.4132C24.7822 19.1278 25.732 19.5281 26.7217 19.5263Z" fill="#F8F8F8"/>
</g>
</g>
<defs>
<clipPath id="clip0_106_113">
<rect width="43" height="44" fill="white"/>
</clipPath>
<clipPath id="clip1_106_113">
<rect width="43" height="44" fill="white" transform="translate(-5.85034 -4.78906)"/>
</clipPath>
</defs>
</svg>
